# xmcd
#
# Track frame offsets: 
#        150
#        15692
#        32454
#        46952
#        60797
#        72789
#        85096
#        98228
#        111390
#        124004
#        140897
#        150770
#        168038
#        182857
#        194175
#
# Disc length: 2821 seconds
#
# Revision: 0
# Processed by: cddbd v1.5.2PL0 Copyright (c) Steve Scherf et al.
# Submitted via: ExactAudioCopyFreeDBPlugin 1.0
#
DISCID=c00b030f
DTITLE=Buck Miner - Country Christmas
DYEAR=2000
DGENRE=Country
TTITLE0=Christmas Waltz
TTITLE1=Ugly Little Tree
TTITLE2=A Dolly For Christmas
TTITLE3=Yodeling Santa Claus
TTITLE4=Let Christmas Last
TTITLE5=Jailhouse Blues
TTITLE6=Elmer The Mule
TTITLE7=I Wish You Had Left Me In September
TTITLE8=Santa's Snowmobile
TTITLE9=Bright Shining Star
TTITLE10=I Know That It's Christmas
TTITLE11=Blue Grass Christmas
TTITLE12=Will There Be Christmas In California?
TTITLE13=Chrismas For Little Jack
TTITLE14=Grandpa's Christmas
EXTD=
EXTT0=
EXTT1=
EXTT2=
EXTT3=
EXTT4=
EXTT5=
EXTT6=
EXTT7=
EXTT8=
EXTT9=
EXTT10=
EXTT11=
EXTT12=
EXTT13=
EXTT14=
PLAYORDER=
